<svg height="512" viewBox="0 0 40 58" width="512" xmlns="http://www.w3.org/2000/svg"><g id="Page-1" fill="none" fill-rule="evenodd"><g id="028---Call" fill="rgb(0,0,0)" fill-rule="nonzero"><path id="Shape" d="m17 53h6c.5522847 0 1-.4477153 1-1s-.4477153-1-1-1h-6c-.5522847 0-1 .4477153-1 1s.4477153 1 1 1z"/><path id="Shape" d="m27.317 30.958-1.55 1.55c-.5797516.5845529-1.4067049.8521295-2.219.718-2.6897646-.5202948-5.1503207-1.8664521-7.039-3.851-1.9848356-1.8888634-3.3310272-4.3498317-3.851-7.04-.1325939-.8118779.1347828-1.6378409.718-2.218l1.551-1.551c.3292493-.329225.3877123-.8421238.141-1.237l-2.768-4.429c-.2737011-.4396566-.8377869-.5976006-1.3-.364l-4.45 2.225c-.38079943.1873133-.60027092.5961091-.546 1.017.91778102 6.0497237 3.8219108 11.6222756 8.255 15.84 4.2180677 4.4335282 9.7908547 7.3383008 15.841 8.257.4211286.0541005.8299948-.1658108 1.017-.547l2.225-4.45c.2334188-.4624622.0750209-1.0266189-.365-1.3l-4.426-2.766c-.3953254-.2438133-.9064864-.1833356-1.234.146z"/><path id="Shape" d="m0 56c0 1.1045695.8954305 2 2 2h36c1.1045695 0 2-.8954305 2-2v-9h-40zm32-5h2c.5522847 0 1 .4477153 1 1s-.4477153 1-1 1h-2c-.5522847 0-1-.4477153-1-1s.4477153-1 1-1zm-15-2h6c1.6568542 0 3 1.3431458 3 3s-1.3431458 3-3 3h-6c-1.6568542 0-3-1.3431458-3-3s1.3431458-3 3-3zm-11.707 2.293 1-1c.39237889-.3789722 1.01608478-.3735524 1.40181858.0121814.38573379.3857338.39115363 1.0094397.01218142 1.4018186l-.293.293.293.293c.25995658.2510745.3642126.6228779.27269716.9725073-.09151544.3496295-.3645604.6226744-.71418984.7141899-.34962943.0915154-.72143285-.0127406-.97250732-.2726972l-1-1c-.39038194-.3904999-.39038194-1.0235001 0-1.414z"/><path id="Shape" d="m0 7v38h40v-38zm35.135 28.772-2.225 4.451c-.5061027 1.0147147-1.5410809 1.6573684-2.675 1.661-.1337895.0000258-.2674276-.0089948-.4-.027-6.4838339-.9757333-12.4592366-4.0795234-16.986-8.823-4.74416289-4.526788-7.84835229-10.502634-8.824-16.987-.16841609-1.2683417.48830354-2.5034087 1.634-3.073l4.45-2.225c1.3841149-.7006135 3.0741674-.2258698 3.891 1.093l2.767 4.428c.7446011 1.1832696.5688515 2.7247141-.423 3.71l-1.554 1.551c-.1258755.1229893-.1850247.2989491-.159.473.4499182 2.2801431 1.6008488 4.362796 3.292 5.957 1.5945996 1.6901179 3.6765854 2.8408729 5.956 3.292.174512.027914.3516218-.0314962.474-.159l1.55-1.551c.9858448-.9925637 2.5285125-1.1679424 3.712-.422l4.427 2.766c1.3155728.8164452 1.7898888 2.502372 1.093 3.885zm-16.13-18.821c.0558174-.5494279.5441167-.9511367 1.094-.9 5.2057015.5283572 9.3212855 4.646031 9.847 9.852.0270785.2643727-.0521908.5286505-.2203037.7344762-.1681128.2058257-.4112406.3362683-.6756963.3625238-.034 0-.068 0-.1 0-.5131825-.0005068-.942682-.3893896-.994-.9-.4317095-4.2575976-3.7984024-7.6242905-8.056-8.056-.5486659-.0552451-.9490582-.5442159-.895-1.093zm14.957 8.981c.0389294.5509018-.3760991 1.0290576-.927 1.068h-.071c-.5257052.0013266-.9626765-.4046197-1-.929-.4802674-6.4374762-5.5966838-11.5555932-12.034-12.038-.2650886-.0179416-.5121394-.1406407-.6866222-.3410144-.1744827-.2003738-.2620515-.4619476-.2433778-.7269856.0441882-.5478517.5183486-.9597979 1.067-.927 7.4324304.5532029 13.3412622 6.4616094 13.895 13.894z"/><path id="Shape" d="m38 0h-36c-1.1045695 0-2 .8954305-2 2v3h19v-1c0-.55228475.4477153-1 1-1s1 .44771525 1 1v1h19v-3c0-1.1045695-.8954305-2-2-2z"/></g></g></svg>